<mxfile host="app.diagrams.net" agent="Mozilla/5.0 (Windows NT 10.0; Win64; x64) AppleWebKit/537.36 (KHTML, like Gecko) Chrome/136.0.0.0 Safari/537.36 Edg/136.0.0.0" version="27.0.6">
  <diagram name="Page-1" id="D0xslpE6M0qRvK7Ef-1C">
    <mxGraphModel dx="1034" dy="540" grid="1" gridSize="10" guides="1" tooltips="1" connect="1" arrows="1" fold="1" page="1" pageScale="1" pageWidth="850" pageHeight="1100" math="0" shadow="0">
      <root>
        <mxCell id="0" />
        <mxCell id="1" parent="0" />
        <mxCell id="JJaMHxgQaHUVjoySyAnl-1" value="Docker Orchestrator" style="swimlane;whiteSpace=wrap;html=1;" vertex="1" parent="1">
          <mxGeometry x="120" y="196.66711109135963" width="680" height="190" as="geometry" />
        </mxCell>
        <mxCell id="JJaMHxgQaHUVjoySyAnl-2" style="edgeStyle=orthogonalEdgeStyle;rounded=0;orthogonalLoop=1;jettySize=auto;html=1;exitX=0;exitY=0.5;exitDx=0;exitDy=0;entryX=1;entryY=0.5;entryDx=0;entryDy=0;" edge="1" parent="JJaMHxgQaHUVjoySyAnl-1" source="JJaMHxgQaHUVjoySyAnl-3" target="JJaMHxgQaHUVjoySyAnl-5">
          <mxGeometry relative="1" as="geometry" />
        </mxCell>
        <mxCell id="JJaMHxgQaHUVjoySyAnl-3" value="MQTT Broker&lt;div&gt;(Mosquitto)&lt;/div&gt;" style="rounded=0;whiteSpace=wrap;html=1;" vertex="1" parent="JJaMHxgQaHUVjoySyAnl-1">
          <mxGeometry x="510" y="40" width="150" height="30" as="geometry" />
        </mxCell>
        <mxCell id="JJaMHxgQaHUVjoySyAnl-4" style="edgeStyle=orthogonalEdgeStyle;rounded=0;orthogonalLoop=1;jettySize=auto;html=1;exitX=0;exitY=0.5;exitDx=0;exitDy=0;entryX=1;entryY=0.25;entryDx=0;entryDy=0;" edge="1" parent="JJaMHxgQaHUVjoySyAnl-1" source="JJaMHxgQaHUVjoySyAnl-5" target="JJaMHxgQaHUVjoySyAnl-7">
          <mxGeometry relative="1" as="geometry" />
        </mxCell>
        <mxCell id="JJaMHxgQaHUVjoySyAnl-5" value="Telegraf (MQTT InfluxDB)" style="rounded=0;whiteSpace=wrap;html=1;" vertex="1" parent="JJaMHxgQaHUVjoySyAnl-1">
          <mxGeometry x="265" y="40" width="150" height="30" as="geometry" />
        </mxCell>
        <mxCell id="JJaMHxgQaHUVjoySyAnl-6" value="Storage Services" style="swimlane;whiteSpace=wrap;html=1;" vertex="1" parent="JJaMHxgQaHUVjoySyAnl-1">
          <mxGeometry x="30" y="30" width="170" height="150" as="geometry" />
        </mxCell>
        <mxCell id="JJaMHxgQaHUVjoySyAnl-7" value="InfluxDB&lt;div&gt;(Time-Series DB)&lt;/div&gt;" style="rounded=0;whiteSpace=wrap;html=1;" vertex="1" parent="JJaMHxgQaHUVjoySyAnl-6">
          <mxGeometry x="20" y="40" width="130" height="30" as="geometry" />
        </mxCell>
        <mxCell id="JJaMHxgQaHUVjoySyAnl-8" value="MongoDB&lt;div&gt;(Document DB)&lt;/div&gt;" style="rounded=0;whiteSpace=wrap;html=1;" vertex="1" parent="JJaMHxgQaHUVjoySyAnl-6">
          <mxGeometry x="17.5" y="90" width="130" height="30" as="geometry" />
        </mxCell>
        <mxCell id="JJaMHxgQaHUVjoySyAnl-9" style="edgeStyle=orthogonalEdgeStyle;rounded=0;orthogonalLoop=1;jettySize=auto;html=1;exitX=0.75;exitY=0;exitDx=0;exitDy=0;entryX=0.644;entryY=0.948;entryDx=0;entryDy=0;entryPerimeter=0;" edge="1" parent="JJaMHxgQaHUVjoySyAnl-1" source="JJaMHxgQaHUVjoySyAnl-15" target="JJaMHxgQaHUVjoySyAnl-3">
          <mxGeometry relative="1" as="geometry" />
        </mxCell>
        <mxCell id="JJaMHxgQaHUVjoySyAnl-10" value="send config cmds" style="edgeLabel;html=1;align=center;verticalAlign=middle;resizable=0;points=[];" vertex="1" connectable="0" parent="JJaMHxgQaHUVjoySyAnl-9">
          <mxGeometry x="-0.0529" relative="1" as="geometry">
            <mxPoint as="offset" />
          </mxGeometry>
        </mxCell>
        <mxCell id="JJaMHxgQaHUVjoySyAnl-11" style="edgeStyle=orthogonalEdgeStyle;rounded=0;orthogonalLoop=1;jettySize=auto;html=1;exitX=0;exitY=0.25;exitDx=0;exitDy=0;entryX=1;entryY=0.75;entryDx=0;entryDy=0;" edge="1" parent="JJaMHxgQaHUVjoySyAnl-1" source="JJaMHxgQaHUVjoySyAnl-15" target="JJaMHxgQaHUVjoySyAnl-7">
          <mxGeometry relative="1" as="geometry" />
        </mxCell>
        <mxCell id="JJaMHxgQaHUVjoySyAnl-12" value="dashboards &amp;amp; analytics" style="edgeLabel;html=1;align=center;verticalAlign=middle;resizable=0;points=[];" vertex="1" connectable="0" parent="JJaMHxgQaHUVjoySyAnl-11">
          <mxGeometry x="0.0194" y="2" relative="1" as="geometry">
            <mxPoint as="offset" />
          </mxGeometry>
        </mxCell>
        <mxCell id="JJaMHxgQaHUVjoySyAnl-13" style="edgeStyle=orthogonalEdgeStyle;rounded=0;orthogonalLoop=1;jettySize=auto;html=1;exitX=0;exitY=0.75;exitDx=0;exitDy=0;" edge="1" parent="JJaMHxgQaHUVjoySyAnl-1" source="JJaMHxgQaHUVjoySyAnl-15" target="JJaMHxgQaHUVjoySyAnl-8">
          <mxGeometry relative="1" as="geometry">
            <Array as="points">
              <mxPoint x="240" y="158" />
              <mxPoint x="240" y="135" />
            </Array>
          </mxGeometry>
        </mxCell>
        <mxCell id="JJaMHxgQaHUVjoySyAnl-14" value="user &amp;amp; metadata" style="edgeLabel;html=1;align=center;verticalAlign=middle;resizable=0;points=[];" vertex="1" connectable="0" parent="JJaMHxgQaHUVjoySyAnl-13">
          <mxGeometry x="-0.1045" y="-1" relative="1" as="geometry">
            <mxPoint as="offset" />
          </mxGeometry>
        </mxCell>
        <mxCell id="JJaMHxgQaHUVjoySyAnl-15" value="Web Interface&lt;div&gt;(Node.js, Express, EJS, Mongoose)&lt;/div&gt;" style="rounded=0;whiteSpace=wrap;html=1;" vertex="1" parent="JJaMHxgQaHUVjoySyAnl-1">
          <mxGeometry x="450" y="120" width="210" height="50" as="geometry" />
        </mxCell>
        <mxCell id="JJaMHxgQaHUVjoySyAnl-20" style="edgeStyle=orthogonalEdgeStyle;rounded=0;orthogonalLoop=1;jettySize=auto;html=1;exitX=1;exitY=0.75;exitDx=0;exitDy=0;entryX=1;entryY=0.25;entryDx=0;entryDy=0;dashed=1;dashPattern=1 2;" edge="1" parent="1" source="JJaMHxgQaHUVjoySyAnl-17" target="JJaMHxgQaHUVjoySyAnl-3">
          <mxGeometry relative="1" as="geometry" />
        </mxCell>
        <mxCell id="JJaMHxgQaHUVjoySyAnl-23" value="subscribe config" style="edgeLabel;html=1;align=center;verticalAlign=middle;resizable=0;points=[];textDirection=vertical-lr;" vertex="1" connectable="0" parent="JJaMHxgQaHUVjoySyAnl-20">
          <mxGeometry x="-0.1401" relative="1" as="geometry">
            <mxPoint as="offset" />
          </mxGeometry>
        </mxCell>
        <mxCell id="JJaMHxgQaHUVjoySyAnl-21" style="edgeStyle=orthogonalEdgeStyle;rounded=0;orthogonalLoop=1;jettySize=auto;html=1;exitX=1;exitY=0.25;exitDx=0;exitDy=0;entryX=1;entryY=0.75;entryDx=0;entryDy=0;dashed=1;dashPattern=1 2;" edge="1" parent="1" source="JJaMHxgQaHUVjoySyAnl-17" target="JJaMHxgQaHUVjoySyAnl-3">
          <mxGeometry relative="1" as="geometry">
            <Array as="points">
              <mxPoint x="840" y="140" />
              <mxPoint x="840" y="259" />
            </Array>
          </mxGeometry>
        </mxCell>
        <mxCell id="JJaMHxgQaHUVjoySyAnl-22" value="publish telemetry" style="edgeLabel;html=1;align=center;verticalAlign=middle;resizable=0;points=[];textDirection=vertical-lr;" vertex="1" connectable="0" parent="JJaMHxgQaHUVjoySyAnl-21">
          <mxGeometry x="-0.1606" relative="1" as="geometry">
            <mxPoint as="offset" />
          </mxGeometry>
        </mxCell>
        <mxCell id="JJaMHxgQaHUVjoySyAnl-17" value="Edge Node Modules" style="rounded=0;whiteSpace=wrap;html=1;" vertex="1" parent="1">
          <mxGeometry x="680" y="130" width="120" height="40" as="geometry" />
        </mxCell>
      </root>
    </mxGraphModel>
  </diagram>
</mxfile>
